<svg xmlns="http://www.w3.org/2000/svg" xmlns:xlink="http://www.w3.org/1999/xlink" width="1736" height="596" viewBox="0 0 1736 596"><defs><path id="cmeva" d="M485.5 5017.16a7.5 7.5 0 1 1 0 15 7.5 7.5 0 0 1 0-15z"/><path id="cmevb" d="M1669.5 4465a7.5 7.5 0 1 1 0 15 7.5 7.5 0 0 1 0-15z"/><path id="cmevc" d="M892.5 4504.03a7.5 7.5 0 1 1 0 15 7.5 7.5 0 0 1 0-15z"/><path id="cmevd" d="M1627.36 4914.9a2 2 0 0 1-.1 2.83l-11.7 10.91a2 2 0 1 1-2.72-2.92l11.7-10.92a2 2 0 0 1 2.82.1z"/><path id="cmeve" d="M1206.05 4568.7a2 2 0 0 1-2.63-1.03l-6.43-14.66a2 2 0 0 1 3.67-1.6l6.42 14.66a2 2 0 0 1-1.03 2.63z"/><path id="cmevf" d="M232.61 4872.66a2 2 0 0 1-2.5 1.33l-15.3-4.68a2 2 0 0 1 1.17-3.82l15.3 4.68a2 2 0 0 1 1.33 2.5z"/><path id="cmevg" d="M1829.47 4721.13c0-1.1.9-2 2-2h.06a2 2 0 0 1 2 2v4.46h4.47a2 2 0 0 1 2 2v.06a2 2 0 0 1-2 2h-4.47v4.48a2 2 0 0 1-2 2h-.06a2 2 0 0 1-2-2v-4.48H1825a2 2 0 0 1-2-2v-.06c0-1.1.9-2 2-2h4.47z"/><path id="cmevh" d="M1299.87 4959.58h.01a2.03 2.03 0 0 1 1.38 2.51l-1.24 4.27 4.27 1.24a2.02 2.02 0 1 1-1.14 3.9l-4.27-1.24-1.24 4.27a2.02 2.02 0 0 1-2.5 1.38h-.02a2.02 2.02 0 0 1-1.38-2.51l1.24-4.27-4.27-1.24a2.02 2.02 0 1 1 1.14-3.9l4.27 1.24 1.24-4.27a2.02 2.02 0 0 1 2.5-1.38z"/><path id="cmevi" d="M116.5 5047.53l.02.01c.79.8.79 2.07 0 2.87l-3.15 3.14 3.15 3.14c.79.8.79 2.08 0 2.87h-.02c-.79.8-2.07.8-2.86 0l-3.14-3.14-3.14 3.15c-.8.79-2.07.79-2.87 0v-.01a2.03 2.03 0 0 1 0-2.87l3.14-3.14-3.15-3.14a2.03 2.03 0 0 1 0-2.87h.01c.8-.8 2.08-.8 2.87 0l3.14 3.14 3.14-3.15c.8-.79 2.07-.79 2.86 0z"/><clipPath id="cmevj"><use fill="#fff" xlink:href="#cmeva"/></clipPath><clipPath id="cmevk"><use fill="#fff" xlink:href="#cmevb"/></clipPath><clipPath id="cmevl"><use fill="#fff" xlink:href="#cmevc"/></clipPath><clipPath id="cmevm"><use fill="#fff" xlink:href="#cmevd"/></clipPath><clipPath id="cmevn"><use fill="#fff" xlink:href="#cmeve"/></clipPath><clipPath id="cmevo"><use fill="#fff" xlink:href="#cmevf"/></clipPath></defs><g><g transform="translate(-104 -4465)"><g opacity=".5"><use fill="#c5c2cc" xlink:href="#cmevg"/></g><g opacity=".5"><use fill="#c5c2cc" xlink:href="#cmevh"/></g><g opacity=".5"><use fill="#c5c2cc" xlink:href="#cmevi"/></g><g opacity=".5"><use fill="#fff" fill-opacity="0" stroke="#c5c2cc" stroke-miterlimit="50" stroke-width="8" clip-path="url(&quot;#cmevj&quot;)" xlink:href="#cmeva"/></g><g opacity=".5"><use fill="#fff" fill-opacity="0" stroke="#c5c2cc" stroke-miterlimit="50" stroke-width="8" clip-path="url(&quot;#cmevk&quot;)" xlink:href="#cmevb"/></g><g opacity=".5"><use fill="#fff" fill-opacity="0" stroke="#c5c2cc" stroke-miterlimit="50" stroke-width="8" clip-path="url(&quot;#cmevl&quot;)" xlink:href="#cmevc"/></g><g opacity=".5"><use fill="#fff" fill-opacity="0" stroke="#c5c2cc" stroke-miterlimit="50" stroke-width="8" clip-path="url(&quot;#cmevm&quot;)" xlink:href="#cmevd"/></g><g opacity=".5"><use fill="#fff" fill-opacity="0" stroke="#c5c2cc" stroke-miterlimit="50" stroke-width="8" clip-path="url(&quot;#cmevn&quot;)" xlink:href="#cmeve"/></g><g opacity=".5"><use fill="#fff" fill-opacity="0" stroke="#c5c2cc" stroke-miterlimit="50" stroke-width="8" clip-path="url(&quot;#cmevo&quot;)" xlink:href="#cmevf"/></g></g></g></svg>