<svg version="1.0" xmlns="http://www.w3.org/2000/svg"
 width="452.000000pt" height="434.000000pt" viewBox="0 0 452.000000 434.000000"
 preserveAspectRatio="xMidYMid meet">
<g transform="translate(0.000000,434.000000) scale(0.100000,-0.100000)">
<path d="M3770 4330 c-30 -5 -777 -122 -1660 -260 -931 -145 -1634 -259 -1673
-272 -358 -112 -538 -538 -374 -883 19 -38 74 -119 122 -180 49 -60 143 -177
210 -260 66 -82 204 -253 306 -380 102 -126 401 -498 665 -825 264 -327 554
-687 644 -800 212 -264 302 -355 397 -403 197 -97 441 -88 630 25 71 42 169
139 210 209 28 47 106 244 323 809 26 69 103 267 170 440 67 173 171 443 232
600 221 575 258 670 363 940 172 442 177 458 183 585 5 130 -9 201 -64 313
-42 85 -137 192 -222 248 -120 80 -310 119 -462 94z"/>
</g>
</svg>
