<svg xmlns="http://www.w3.org/2000/svg" xmlns:xlink="http://www.w3.org/1999/xlink" width="1761" height="412" viewBox="0 0 1761 412"><defs><path id="jx0ra" d="M67.5 1121a7.5 7.5 0 1 1 0 15 7.5 7.5 0 0 1 0-15z"/><path id="jx0rb" d="M1620.5 922a7.5 7.5 0 1 1 0 15 7.5 7.5 0 0 1 0-15z"/><path id="jx0rc" d="M873.5 919a7.5 7.5 0 1 1 0 15 7.5 7.5 0 0 1 0-15z"/><path id="jx0rd" d="M1608.36 1269.68a2 2 0 0 1-.1 2.83l-11.7 10.9a2 2 0 1 1-2.72-2.92l11.7-10.91a2 2 0 0 1 2.82.1z"/><path id="jx0re" d="M1187.05 983.65a2 2 0 0 1-2.63-1.03l-6.43-14.65a2 2 0 0 1 3.67-1.6l6.42 14.65a2 2 0 0 1-1.03 2.63z"/><path id="jx0rf" d="M213.61 1307.43a2 2 0 0 1-2.5 1.32l-15.3-4.67a2 2 0 0 1 1.17-3.83l15.3 4.68a2 2 0 0 1 1.33 2.5z"/><path id="jx0rg" d="M1810.47 1106c0-1.1.9-2 2-2h.06a2 2 0 0 1 2 2v4.47h4.47a2 2 0 0 1 2 2v.06a2 2 0 0 1-2 2h-4.47v4.47a2 2 0 0 1-2 2h-.06a2 2 0 0 1-2-2v-4.47H1806a2 2 0 0 1-2-2v-.06c0-1.1.9-2 2-2h4.47z"/><path id="jx0rh" d="M1100.87 1314.34h.01a2.02 2.02 0 0 1 1.38 2.5l-1.24 4.28 4.27 1.24a2.02 2.02 0 0 1 1.37 2.5v.02a2.02 2.02 0 0 1-2.51 1.38l-4.27-1.24-1.24 4.27a2.02 2.02 0 0 1-2.5 1.37h-.02a2.02 2.02 0 0 1-1.38-2.51l1.24-4.27-4.27-1.24a2.02 2.02 0 0 1-1.37-2.51v-.01a2.02 2.02 0 0 1 2.51-1.38l4.27 1.24 1.24-4.27a2.02 2.02 0 0 1 2.5-1.37z"/><path id="jx0ri" d="M270.5 947.48l.02.01c.79.8.79 2.08 0 2.87l-3.15 3.14 3.15 3.14c.79.8.79 2.07 0 2.86l-.01.01c-.8.8-2.08.8-2.87 0l-3.14-3.14-3.14 3.14a2.02 2.02 0 1 1-2.87-2.87l3.14-3.14-3.15-3.14a2.02 2.02 0 0 1 0-2.87h.01a2.02 2.02 0 0 1 2.87 0l3.14 3.14 3.14-3.15a2.02 2.02 0 0 1 2.87 0z"/><clipPath id="jx0rj"><use fill="#fff" xlink:href="#jx0ra"/></clipPath><clipPath id="jx0rk"><use fill="#fff" xlink:href="#jx0rb"/></clipPath><clipPath id="jx0rl"><use fill="#fff" xlink:href="#jx0rc"/></clipPath><clipPath id="jx0rm"><use fill="#fff" xlink:href="#jx0rd"/></clipPath><clipPath id="jx0rn"><use fill="#fff" xlink:href="#jx0re"/></clipPath><clipPath id="jx0ro"><use fill="#fff" xlink:href="#jx0rf"/></clipPath></defs><g><g transform="translate(-60 -919)"><g opacity=".5"><use fill="#c5c2cc" xlink:href="#jx0rg"/></g><g opacity=".5"><use fill="#c5c2cc" xlink:href="#jx0rh"/></g><g opacity=".5"><use fill="#c5c2cc" xlink:href="#jx0ri"/></g><g opacity=".5"><use fill="#fff" fill-opacity="0" stroke="#c5c2cc" stroke-miterlimit="50" stroke-width="8" clip-path="url(&quot;#jx0rj&quot;)" xlink:href="#jx0ra"/></g><g opacity=".5"><use fill="#fff" fill-opacity="0" stroke="#c5c2cc" stroke-miterlimit="50" stroke-width="8" clip-path="url(&quot;#jx0rk&quot;)" xlink:href="#jx0rb"/></g><g opacity=".5"><use fill="#fff" fill-opacity="0" stroke="#c5c2cc" stroke-miterlimit="50" stroke-width="8" clip-path="url(&quot;#jx0rl&quot;)" xlink:href="#jx0rc"/></g><g opacity=".5"><use fill="#fff" fill-opacity="0" stroke="#c5c2cc" stroke-miterlimit="50" stroke-width="8" clip-path="url(&quot;#jx0rm&quot;)" xlink:href="#jx0rd"/></g><g opacity=".5"><use fill="#fff" fill-opacity="0" stroke="#c5c2cc" stroke-miterlimit="50" stroke-width="8" clip-path="url(&quot;#jx0rn&quot;)" xlink:href="#jx0re"/></g><g opacity=".5"><use fill="#fff" fill-opacity="0" stroke="#c5c2cc" stroke-miterlimit="50" stroke-width="8" clip-path="url(&quot;#jx0ro&quot;)" xlink:href="#jx0rf"/></g></g></g></svg>